<?xml version="1.0" encoding="UTF-8" standalone="no"?>
<svg
   xmlns:dc="http://purl.org/dc/elements/1.1/"
   xmlns:cc="http://creativecommons.org/ns#"
   xmlns:rdf="http://www.w3.org/1999/02/22-rdf-syntax-ns#"
   xmlns:svg="http://www.w3.org/2000/svg"
   xmlns="http://www.w3.org/2000/svg"
   xmlns:sodipodi="http://sodipodi.sourceforge.net/DTD/sodipodi-0.dtd"
   xmlns:inkscape="http://www.inkscape.org/namespaces/inkscape"
   version="1.0"
   width="1280.000000pt"
   height="1280.000000pt"
   viewBox="0 0 1280.000000 1280.000000"
   preserveAspectRatio="xMidYMid meet"
   id="svg2"
   inkscape:version="0.91 r13725"
   sodipodi:docname="icon_inkscape.svg">
  <defs
     id="defs38" />
  <sodipodi:namedview
     pagecolor="#ffffff"
     bordercolor="#666666"
     borderopacity="1"
     objecttolerance="10"
     gridtolerance="10"
     guidetolerance="10"
     inkscape:pageopacity="0"
     inkscape:pageshadow="2"
     inkscape:window-width="1920"
     inkscape:window-height="1027"
     id="namedview36"
     showgrid="false"
     showguides="true"
     inkscape:guide-bbox="true"
     inkscape:zoom="0.295"
     inkscape:cx="831.05367"
     inkscape:cy="528.56684"
     inkscape:window-x="0"
     inkscape:window-y="0"
     inkscape:window-maximized="1"
     inkscape:current-layer="svg2">
    <sodipodi:guide
       position="636.6358,558.01511"
       orientation="1,0"
       id="guide4644" />
    <sodipodi:guide
       position="816.88811,640.47096"
       orientation="0,1"
       id="guide4646" />
  </sodipodi:namedview>
  <metadata
     id="metadata4">
Created by potrace 1.15, written by Peter Selinger 2001-2017
<rdf:RDF>
  <cc:Work
     rdf:about="">
    <dc:format>image/svg+xml</dc:format>
    <dc:type
       rdf:resource="http://purl.org/dc/dcmitype/StillImage" />
    <dc:title></dc:title>
  </cc:Work>
</rdf:RDF>
</metadata>
  <path
     style="fill:#000000;stroke:none"
     inkscape:connector-curvature="0"
     id="path8"
     d="m 601.5,38.7 c -46.2,3 -96,12.2 -140.4,25.9 C 344.5,100.8 239.6,173.6 164.2,270.7 98.7,355.2 56.9,455 43.1,560 c -4.1,31.6 -4.6,39.8 -4.6,80.5 0,41.6 0.7,52.4 5.6,87 12.8,90.2 48.7,181.1 101.4,256.5 39,55.7 88.8,106.2 143,145.1 86.7,62.2 182.4,98.5 291.5,110.5 19.7,2.1 78.4,3 100.6,1.5 208.1,-14.5 391.1,-132.9 490.6,-317.4 61.5,-113.9 84.2,-250 63.2,-379.6 C 1208.7,384.9 1121,243.6 989.4,149.4 899.6,85.1 794.1,47.2 682.5,39 c -12.6,-0.9 -68.4,-1.1 -81,-0.3 z m 71,79.3 c 186.6,11.7 351.4,121 435.6,289.2 61.3,122.3 71.4,267 27.9,397.8 -21.1,63.4 -52.5,119.5 -96.7,172.5 -13.2,15.9 -42.6,45.6 -58.8,59.4 C 850.8,1147.7 679.1,1188.3 513.3,1147.5 377.7,1114.1 258.5,1024.5 188,903 149,835.6 126.3,763.8 118.9,684 c -1.6,-17.4 -1.6,-70.6 0,-88 7.4,-79.9 30,-151.6 69.1,-219 70.4,-121.4 189.4,-210.9 325,-244.4 52.5,-13 106.3,-17.9 159.5,-14.6 z" />
  <path
     style="fill:#000000;stroke:none"
     inkscape:connector-curvature="0"
     id="path10"
     d="m 629.8,127.8 -9.8,0.3 0,31.9 0,32 20,0 20,0 0,-32 0,-32 -8.9,0 c -4.9,0 -9.5,-0.1 -10.3,-0.3 -0.7,-0.1 -5.7,-0.1 -11,0.1 z" />
  <path
     style="fill:#000000;stroke:none"
     inkscape:connector-curvature="0"
     id="path12"
     d="m 387.5,194.3 c -17.2,9.8 -22.5,13.1 -22.5,14 0,1.4 31.1,54.7 31.9,54.7 0.4,0 5.7,-3 11.7,-6.6 6,-3.6 13.5,-8 16.7,-9.7 3.1,-1.7 5.7,-3.5 5.7,-3.9 0,-0.9 -29.9,-51.9 -31.4,-53.6 -0.9,-1 -3.5,0.1 -12.1,5.1 z" />
  <path
     style="fill:#000000;stroke:none"
     inkscape:connector-curvature="0"
     id="path14"
     d="m 878.7,191.7 c -6.1,9.8 -29.7,50.3 -29.7,51 0,0.5 3.9,3.1 8.8,5.8 4.8,2.6 12.2,7 16.5,9.7 4.3,2.6 8.2,4.8 8.6,4.8 0.8,0 32.1,-53.4 32.1,-54.8 0,-0.7 -16.3,-10.6 -28.2,-17.2 l -5.7,-3.1 -2.4,3.8 z" />
  <path
     style="fill:#000000;stroke:none"
     inkscape:connector-curvature="0"
     id="path16"
     d="m 200.2,377.2 c -8.7,14.5 -14.5,25.9 -13.6,26.8 1.3,1.2 53.4,31 54.2,31 0.7,0 20.4,-34.2 20,-34.5 -0.2,-0.1 -11.3,-6.4 -24.8,-14 -13.5,-7.5 -25.9,-14.6 -27.7,-15.6 l -3.1,-2 -5,8.3 z" />
  <path
     style="fill:#000000;stroke:none"
     inkscape:connector-curvature="0"
     id="path18"
     d="m 1047.5,384.5 c -14.8,8.5 -27.4,15.6 -27.9,15.8 -0.5,0.2 1.3,4.1 4.1,8.8 2.8,4.6 7.2,12.3 9.9,17.1 2.6,4.9 5.1,8.8 5.4,8.8 0.8,0 53.1,-29.9 54.4,-31 0.5,-0.5 -1,-4.3 -3.4,-8.7 -4.2,-7.6 -15.1,-26.3 -15.4,-26.3 0,0.1 -12.2,7 -27.1,15.5 z" />
  <path
     style="fill:#000000;stroke:none"
     inkscape:connector-curvature="0"
     id="path22"
     d="m 128,640 0,20 32,0 32,0 0,-20 0,-20 -32,0 -32,0 0,20 z" />
  <path
     style="fill:#000000;stroke:none"
     inkscape:connector-curvature="0"
     id="path24"
     d="m 1088,640 0,20 32,0 32,0 0,-20 0,-20 -32,0 -32,0 0,20 z" />
  <path
     style="fill:#000000;stroke:none"
     inkscape:connector-curvature="0"
     id="path26"
     d="m 213.3,860.3 c -14.4,8.4 -26.5,15.5 -26.8,15.9 -0.8,0.8 5.6,13.1 13.7,26.6 l 5,8.3 3.1,-2 c 1.8,-1 14.2,-8.1 27.7,-15.6 13.5,-7.6 24.6,-13.9 24.8,-14 0.6,-0.5 -19.4,-34.4 -20.3,-34.4 -0.5,0 -12.8,6.9 -27.2,15.2 z" />
  <path
     style="fill:#000000;stroke:none"
     inkscape:connector-curvature="0"
     id="path28"
     d="m 1033.6,853.7 c -2.7,4.9 -7.1,12.5 -9.8,17.1 -2.8,4.6 -4.8,8.5 -4.7,8.6 0.2,0.2 11,6.3 23.9,13.6 12.9,7.2 25.4,14.3 27.6,15.6 l 4.2,2.4 5.5,-9.3 c 9.6,-16.1 14,-24.8 13.1,-25.6 -1.4,-1.3 -53.5,-31.1 -54.3,-31.1 -0.4,0 -2.9,3.9 -5.5,8.7 z" />
  <path
     style="fill:#000000;stroke:none"
     inkscape:connector-curvature="0"
     id="path30"
     d="m 380.6,1043.9 c -8.6,14.9 -15.6,27.3 -15.6,27.8 0,0.8 14.8,9.9 28.2,17.3 l 5.7,3.1 1.5,-2.3 c 4.2,-6.6 30.6,-52 30.6,-52.6 0,-0.4 -2.6,-2.2 -5.7,-3.9 -3.2,-1.7 -10.7,-6.1 -16.7,-9.7 -6,-3.6 -11.3,-6.6 -11.7,-6.6 -0.4,0 -7.7,12.1 -16.3,26.9 z" />
  <path
     style="fill:#000000;stroke:none"
     inkscape:connector-curvature="0"
     id="path32"
     d="m 878.3,1019.4 c -1.8,1.2 -9.1,5.6 -16.3,9.7 -7.1,4 -13,7.7 -13,8.2 0,0.8 23.7,41.5 29.7,51 l 2.4,3.8 5.7,-3.1 c 12,-6.6 28.2,-16.5 28.2,-17.3 0,-1.7 -31.4,-54.7 -32.4,-54.7 -0.6,0.1 -2.6,1.1 -4.3,2.4 z" />
  <path
     style="fill:#000000;stroke:none"
     inkscape:connector-curvature="0"
     id="path34"
     d="m 620,1120 0,32 20,0 20,0 0,-32 0,-32 -20,0 -20,0 0,32 z" />
  <ellipse
     style="color:#000000;clip-rule:nonzero;display:inline;overflow:visible;visibility:visible;opacity:1;isolation:auto;mix-blend-mode:normal;color-interpolation:sRGB;color-interpolation-filters:linearRGB;solid-color:#000000;solid-opacity:1;fill:#008080;fill-opacity:1;fill-rule:nonzero;stroke:none;stroke-width:1.25;stroke-linecap:butt;stroke-linejoin:miter;stroke-miterlimit:4;stroke-dasharray:none;stroke-dashoffset:0;stroke-opacity:1;color-rendering:auto;image-rendering:auto;shape-rendering:auto;text-rendering:auto;enable-background:accumulate"
     id="path4180"
     cx="640.26904"
     cy="640.02185"
     rx="40.080002"
     ry="40" />
  <path
     id="path4562"
     d="m 504.27851,775.00671 c 1.42174,-0.009 2.82609,-0.5452 3.91338,-1.51035 l 95.8812,-83.26381 c 8.05363,4.10876 16.91314,6.60217 26.20453,7.25657 18.15822,1.2789 35.74192,-4.60023 49.49532,-16.5138 13.72915,-11.93372 22.00689,-28.50831 23.28652,-46.6769 1.28025,-18.17737 -4.59703,-35.71924 -16.52446,-49.48083 -24.64587,-28.39612 -67.77145,-31.43911 -96.15193,-6.7761 -13.76567,11.9512 -22.0489,28.50134 -23.32848,46.66914 -0.65457,9.29377 0.58915,18.39404 3.53189,26.96437 l -31.52118,27.3522 c -1.29522,1.13902 -2.05053,2.70823 -2.11657,4.45431 l -0.56685,16.07589 -16.0393,-1.65577 c -1.69232,-0.16891 -3.38574,0.32694 -4.6797,1.47085 -1.29002,1.09929 -2.06319,2.71696 -2.11349,4.41041 l -0.58377,16.13406 -16.01793,-1.7088 c -1.69385,-0.16982 -3.39328,0.36571 -4.6841,1.46493 -1.29283,1.13919 -2.04206,2.51956 -2.11897,4.45414 l -0.58495,16.09387 -16.02313,-1.66906 c -1.77456,-0.21962 -3.54074,0.40985 -4.84664,1.59783 -1.15128,1.09944 -1.82991,2.52488 -1.93872,4.06985 -0.0156,0.22185 -0.0217,0.44999 -0.0181,0.67801 l 1.00003,24.81237 c 0.12878,3.35249 2.92678,5.98438 6.28105,5.93351 l 30.26433,-0.63689 z M 643.85397,621.87532 c -7.02148,-8.09411 -6.16041,-20.31983 1.92515,-27.33389 8.08875,-7.02507 20.31207,-6.16417 27.3291,1.92482 7.01782,8.07781 6.16422,20.30004 -1.92316,27.33403 -8.08003,7.01525 -20.311,6.149 -27.33149,-1.92499 z M 503.70776,753.84636 c -0.83529,-0.96186 -1.19896,-2.19767 -1.11656,-3.36757 0.0824,-1.1699 0.61655,-2.34327 1.57756,-3.17782 l 81.60205,-70.84272 c 2.13848,2.28308 4.41101,4.38233 6.81971,6.31313 l -82.35727,71.53378 c -1.92372,1.67057 -4.85566,1.46407 -6.52549,-0.4588 z"
     inkscape:connector-curvature="0" />
  <path
     id="path4562-3"
     d="m 695.46348,292.61361 c -1.117,0.87962 -1.89673,2.16482 -2.16288,3.59411 l -69.40353,265.38224 c -8.88021,1.69844 -17.40536,5.16683 -25.1429,10.35225 -15.12155,10.13388 -25.39661,25.56676 -28.94418,43.41344 -3.51607,17.84771 0.12008,36.01406 10.25976,51.14423 10.14457,15.13748 25.55032,25.38066 43.41296,28.92619 36.88554,7.29485 72.80248,-16.7686 80.07446,-53.65808 3.53417,-17.88392 -0.0826,-36.03434 -10.22187,-51.16386 -5.18675,-7.73952 -11.75351,-14.1613 -19.33651,-19.12199 L 726.90013,389.742 c 0.32362,-1.69418 -0.043,-3.39666 -1.06247,-4.8158 l -9.41816,-13.04046 13.67984,-8.53596 c 1.43982,-0.90521 2.47253,-2.33596 2.79216,-4.03322 0.34389,-1.65962 -0.0384,-3.41132 -1.03797,-4.77925 l -9.4405,-13.09677 13.69552,-8.48098 c 1.44158,-0.90543 2.45469,-2.37119 2.79927,-4.03123 0.32163,-1.69285 0.0661,-3.24251 -1.06048,-4.81715 l -9.41491,-13.06577 13.67524,-8.51553 c 1.53586,-0.91565 2.54404,-2.49654 2.84604,-4.23593 0.23426,-1.57459 -0.10472,-3.11651 -0.96695,-4.4031 -0.12383,-0.18473 -0.25903,-0.36861 -0.4018,-0.54642 l -16.01684,-18.9767 c -2.15909,-2.5679 -5.9834,-2.92876 -8.60052,-0.83009 l -23.5041,19.07596 z m -61.02451,347.36063 c 10.51108,2.08158 17.33412,12.26273 15.25474,22.76271 -2.07515,10.51062 -12.25431,17.33232 -22.75873,15.25204 -10.49819,-2.07095 -17.32498,-12.24477 -15.25638,-22.7616 2.07429,-10.49752 12.26276,-17.31968 22.76071,-15.25337 z m 74.46117,-331.00391 c 1.24979,0.24681 2.29533,0.99935 2.94824,1.97361 0.6529,0.97425 0.95127,2.22848 0.70466,3.47716 l -65.75232,246.81219 c -3.08954,-0.49021 -6.17209,-0.75302 -9.25879,-0.79925 l 65.9245,-247.82128 c 0.49363,-2.49957 2.93526,-4.13585 5.43371,-3.64243 z"
     inkscape:connector-curvature="0"
     sodipodi:nodetypes="cccscsccsccccccccccccccccccccccccccssccccs" />
</svg>
